# This file uses centimeters as units for non-parametric coordinates.

mtllib arrow.mtl
g default
v 0.303959 0.000000 2.953576
v -0.303959 0.000000 2.953576
v -0.000000 0.000000 4.274044
v 1.036503 0.000000 2.771670
v -1.036503 0.000000 2.771670
v 0.861710 0.000000 -0.000000
v 0.819535 0.000000 -0.266283
v 0.697138 0.000000 -0.506501
v 0.506501 0.000000 -0.697138
v 0.266283 0.000000 -0.819535
v -0.000000 0.000000 -0.861711
v -0.266283 0.000000 -0.819536
v -0.506501 0.000000 -0.697139
v -0.697139 0.000000 -0.506501
v -0.819536 0.000000 -0.266283
v -0.861711 0.000000 0.000000
v -0.819536 0.000000 0.266283
v -0.697139 0.000000 0.506501
v -0.506501 0.000000 0.697139
v -0.303959 0.000000 0.835092
v 0.303959 0.000000 0.821805
v 0.506501 0.000000 0.697139
v 0.697139 0.000000 0.506501
v 0.819536 0.000000 0.266283
v 1.093176 0.000000 -0.000000
v 1.039672 0.000000 -0.337810
v 0.884398 0.000000 -0.642553
v 0.642553 0.000000 -0.884398
v 0.337810 0.000000 -1.039672
v -0.000000 0.000000 -1.093176
v -0.337810 0.000000 -1.039672
v -0.642553 0.000000 -0.884398
v -0.884398 0.000000 -0.642553
v -1.039672 0.000000 -0.337810
v -1.093176 0.000000 -0.000000
v -1.039672 0.000000 0.337810
v -0.884398 0.000000 0.642553
v -0.642553 0.000000 0.884398
v -0.303959 -0.000000 1.642576
v 0.303959 -0.000000 1.642482
v 0.642553 0.000000 0.884398
v 0.884398 0.000000 0.642553
v 1.039673 0.000000 0.337810
v 0.303959 0.138935 2.953576
v -0.000000 0.138935 4.274044
v -0.303959 0.138935 2.953576
v 1.036503 0.138935 2.771670
v -1.036503 0.138935 2.771670
v 1.093176 0.138935 -0.000000
v 1.039672 0.138935 -0.337810
v 0.861710 0.138935 -0.000000
v 0.819535 0.138935 -0.266283
v 0.884398 0.138935 -0.642553
v 0.697138 0.138935 -0.506501
v 0.642553 0.138935 -0.884398
v 0.506501 0.138935 -0.697138
v 0.337810 0.138935 -1.039672
v 0.266283 0.138935 -0.819535
v -0.000000 0.138935 -1.093176
v -0.000000 0.138935 -0.861711
v -0.337810 0.138935 -1.039672
v -0.266283 0.138935 -0.819536
v -0.642553 0.138935 -0.884398
v -0.506501 0.138935 -0.697139
v -0.884398 0.138935 -0.642553
v -0.697139 0.138935 -0.506501
v -1.039672 0.138935 -0.337810
v -0.819536 0.138935 -0.266283
v -1.093176 0.138935 -0.000000
v -0.861711 0.138935 0.000000
v -1.039672 0.138935 0.337810
v -0.819536 0.138935 0.266283
v -0.884398 0.138935 0.642553
v -0.697139 0.138935 0.506501
v -0.642553 0.138935 0.884398
v -0.506501 0.138935 0.697139
v -0.303959 0.138935 1.642576
v -0.303959 0.138935 0.835092
v 0.303959 0.138935 1.642482
v 0.642553 0.138935 0.884398
v 0.303959 0.138935 0.821805
v 0.506501 0.138935 0.697139
v 0.884398 0.138935 0.642553
v 0.697139 0.138935 0.506501
v 1.039673 0.138935 0.337810
v 0.819536 0.138935 0.266283
vt 0.171889 0.307855
vt 0.312881 0.307855
vt 0.242385 0.001603
vt 0.001992 0.350044
vt 0.482778 0.350044
vt 0.985599 0.176793
vt 0.998008 0.255140
vt 0.944325 0.255140
vt 0.934543 0.193381
vt 0.985599 0.333487
vt 0.934543 0.316898
vt 0.949587 0.106114
vt 0.906156 0.137669
vt 0.949587 0.404165
vt 0.906156 0.372611
vt 0.893496 0.050024
vt 0.861942 0.093454
vt 0.893496 0.460256
vt 0.861942 0.416825
vt 0.822818 0.014012
vt 0.806229 0.065067
vt 0.814967 0.637811
vt 0.814967 0.445739
vt 0.744471 0.001603
vt 0.744471 0.055286
vt 0.666124 0.014012
vt 0.682713 0.065067
vt 0.595445 0.050024
vt 0.627000 0.093454
vt 0.539355 0.106114
vt 0.582785 0.137669
vt 0.503343 0.176793
vt 0.554398 0.193381
vt 0.490934 0.255140
vt 0.544617 0.255140
vt 0.503343 0.333487
vt 0.554398 0.316898
vt 0.539355 0.404165
vt 0.582785 0.372611
vt 0.595445 0.460256
vt 0.627000 0.416825
vt 0.673975 0.637855
vt 0.673975 0.448820
vt 0.171889 0.613668
vt 0.312881 0.613668
vt 0.000000 0.000000
vt 0.983812 0.000000
vt 1.000000 0.740667
vt 0.000115 0.740667
vt 0.312881 0.307855
vt 0.242385 0.001603
vt 0.171889 0.307855
vt 0.482778 0.350044
vt 0.001992 0.350044
vt 0.985599 0.176793
vt 0.998008 0.255140
vt 0.944325 0.255140
vt 0.934543 0.193381
vt 0.949587 0.106114
vt 0.906156 0.137669
vt 0.893496 0.050024
vt 0.861942 0.093454
vt 0.822818 0.014012
vt 0.806229 0.065067
vt 0.744471 0.001603
vt 0.744471 0.055286
vt 0.666124 0.014012
vt 0.682713 0.065067
vt 0.595445 0.050024
vt 0.627000 0.093454
vt 0.539355 0.106114
vt 0.582785 0.137669
vt 0.503343 0.176793
vt 0.554398 0.193381
vt 0.490934 0.255140
vt 0.544617 0.255140
vt 0.503343 0.333487
vt 0.554398 0.316898
vt 0.539355 0.404165
vt 0.582785 0.372611
vt 0.595445 0.460256
vt 0.627000 0.416825
vt 0.673975 0.637855
vt 0.673975 0.448820
vt 0.893496 0.460256
vt 0.814967 0.637811
vt 0.814967 0.445739
vt 0.861942 0.416825
vt 0.949587 0.404165
vt 0.906156 0.372611
vt 0.985599 0.333487
vt 0.934543 0.316898
vt 0.000000 0.000000
vt 0.983812 0.000000
vt 1.000000 0.740667
vt 0.000115 0.740667
vt 0.312881 0.307855
vt 0.482778 0.350044
vt 0.242385 0.001603
vt 0.001992 0.350044
vt 0.171889 0.307855
vt 0.985599 0.176793
vt 0.998008 0.255140
vt 0.944325 0.255140
vt 0.934543 0.193381
vt 0.949587 0.106114
vt 0.906156 0.137669
vt 0.893496 0.050024
vt 0.861942 0.093454
vt 0.822818 0.014012
vt 0.806229 0.065067
vt 0.744471 0.001603
vt 0.744471 0.055286
vt 0.666124 0.014012
vt 0.682713 0.065067
vt 0.595445 0.050024
vt 0.627000 0.093454
vt 0.539355 0.106114
vt 0.582785 0.137669
vt 0.503343 0.176793
vt 0.554398 0.193381
vt 0.490934 0.255140
vt 0.544617 0.255140
vt 0.503343 0.333487
vt 0.554398 0.316898
vt 0.539355 0.404165
vt 0.582785 0.372611
vt 0.595445 0.460256
vt 0.627000 0.416825
vt 0.673975 0.637855
vt 0.673975 0.448820
vt 0.893496 0.460256
vt 0.814967 0.637811
vt 0.814967 0.445739
vt 0.861942 0.416825
vt 0.949587 0.404165
vt 0.906156 0.372611
vt 0.985599 0.333487
vt 0.934543 0.316898
vt 0.312881 0.613668
vt 0.171889 0.613668
vt 0.983812 0.000000
vt 1.000000 0.740667
vt 0.000115 0.740667
vt 0.000000 0.000000
vt 0.000000 0.000000
vt 1.000000 0.000000
vt 0.999928 0.463672
vt 0.000000 0.463672
vn -0.000000 1.000000 -0.000000
vn -0.000000 1.000000 -0.000000
vn 0.000000 1.000000 0.000000
vn 0.000000 1.000000 -0.000000
vn 0.000000 1.000000 -0.000000
vn 0.000000 1.000000 -0.000000
vn 0.000000 1.000000 -0.000000
vn 0.000000 1.000000 -0.000000
vn 0.000000 1.000000 -0.000000
vn 0.000000 1.000000 0.000000
vn 0.000000 1.000000 0.000000
vn 0.000000 1.000000 -0.000000
vn 0.000000 1.000000 -0.000000
vn 0.000000 1.000000 0.000000
vn 0.000000 1.000000 0.000000
vn 0.000000 1.000000 0.000000
vn 0.000000 1.000000 0.000000
vn 0.000000 1.000000 0.000000
vn 0.000000 1.000000 0.000000
vn 0.000000 1.000000 0.000000
vn 0.000000 1.000000 0.000000
vn 0.000000 1.000000 0.000000
vn 0.000000 1.000000 0.000000
vn 0.000000 1.000000 0.000000
vn 0.000000 1.000000 0.000000
vn 0.000000 1.000000 -0.000000
vn 0.000000 1.000000 -0.000000
vn 0.000000 1.000000 -0.000000
vn 0.000000 1.000000 -0.000000
vn 0.000000 1.000000 -0.000000
vn 0.000000 1.000000 -0.000000
vn 0.000000 1.000000 -0.000000
vn 0.000000 1.000000 -0.000000
vn 0.000000 1.000000 0.000000
vn 0.000000 1.000000 0.000000
vn 0.000000 1.000000 0.000000
vn 0.000000 1.000000 0.000000
vn 0.000000 1.000000 0.000000
vn 0.000000 1.000000 0.000000
vn 0.000000 1.000000 0.000000
vn 0.000000 1.000000 0.000000
vn 0.000000 1.000000 0.000000
vn 0.000000 1.000000 0.000000
vn 0.000000 1.000000 0.000000
vn 0.000000 1.000000 0.000000
vn 0.000000 1.000000 -0.000000
vn 0.000000 1.000000 -0.000000
vn -0.000000 1.000000 -0.000000
vn -0.000000 1.000000 -0.000000
vn 0.000000 1.000000 0.000000
vn 0.000000 1.000000 0.000000
vn 0.000000 1.000000 0.000000
vn 0.000000 1.000000 0.000000
vn 0.000000 -1.000000 0.000000
vn 0.000000 -1.000000 0.000000
vn 0.000000 -1.000000 0.000000
vn 0.000000 -1.000000 0.000000
vn 0.000000 -1.000000 0.000000
vn 0.000000 -1.000000 0.000000
vn -0.000000 -1.000000 0.000000
vn -0.000000 -1.000000 0.000000
vn -0.000000 -1.000000 0.000000
vn 0.000000 -1.000000 0.000000
vn 0.000000 -1.000000 0.000000
vn 0.000000 -1.000000 0.000000
vn 0.000000 -1.000000 0.000000
vn 0.000000 -1.000000 0.000000
vn 0.000000 -1.000000 0.000000
vn 0.000000 -1.000000 0.000000
vn 0.000000 -1.000000 0.000000
vn 0.000000 -1.000000 0.000000
vn 0.000000 -1.000000 0.000000
vn 0.000000 -1.000000 0.000000
vn 0.000000 -1.000000 0.000000
vn 0.000000 -1.000000 0.000000
vn 0.000000 -1.000000 0.000000
vn 0.000000 -1.000000 0.000000
vn 0.000000 -1.000000 0.000000
vn 0.000000 -1.000000 0.000000
vn 0.000000 -1.000000 0.000000
vn 0.000000 -1.000000 0.000000
vn 0.000000 -1.000000 0.000000
vn 0.000000 -1.000000 0.000000
vn 0.000000 -1.000000 0.000000
vn 0.000000 -1.000000 0.000000
vn 0.000000 -1.000000 0.000000
vn 0.000000 -1.000000 0.000000
vn 0.000000 -1.000000 0.000000
vn -0.000000 -1.000000 -0.000000
vn -0.000000 -1.000000 -0.000000
vn -0.000000 -1.000000 -0.000000
vn -0.000000 -1.000000 -0.000000
vn 0.000000 -1.000000 -0.000000
vn 0.000000 -1.000000 -0.000000
vn 0.000000 -1.000000 -0.000000
vn 0.000000 -1.000000 -0.000000
vn 0.000000 -1.000000 0.000000
vn 0.000000 -1.000000 0.000000
vn 0.000000 -1.000000 0.000000
vn 0.000000 -1.000000 0.000000
vn -0.000000 -1.000000 -0.000000
vn -0.000000 -1.000000 -0.000000
vn -0.000000 -1.000000 -0.000000
vn -0.000000 -1.000000 -0.000000
vn -0.241002 0.000000 -0.970525
vn -0.241002 0.000000 -0.970525
vn -0.241002 0.000000 -0.970525
vn -0.241002 0.000000 -0.970525
vn 0.823115 0.000000 0.567875
vn 0.823115 0.000000 0.567875
vn 0.823115 0.000000 0.567875
vn 0.823115 0.000000 0.567875
vn -0.823115 0.000000 0.567875
vn -0.823115 0.000000 0.567875
vn -0.823115 0.000000 0.567875
vn -0.823115 0.000000 0.567875
vn 0.241002 0.000000 -0.970525
vn 0.241002 0.000000 -0.970525
vn 0.241002 0.000000 -0.970525
vn 0.241002 0.000000 -0.970525
vn 0.951056 0.000000 -0.309017
vn 0.951056 0.000000 -0.309017
vn 1.000000 0.000000 -0.000001
vn 1.000000 0.000000 -0.000001
vn -1.000000 0.000000 0.000001
vn -1.000000 0.000000 0.000001
vn -0.951057 0.000000 0.309017
vn -0.951057 0.000000 0.309017
vn 0.809017 0.000000 -0.587785
vn 0.809017 0.000000 -0.587785
vn -0.809017 0.000000 0.587785
vn -0.809017 0.000000 0.587785
vn 0.587785 0.000000 -0.809017
vn 0.587785 0.000000 -0.809017
vn -0.587785 0.000000 0.809017
vn -0.587785 0.000000 0.809017
vn 0.309017 0.000000 -0.951057
vn 0.309017 0.000000 -0.951057
vn -0.309017 0.000000 0.951056
vn -0.309017 0.000000 0.951056
vn 0.000000 0.000000 -1.000000
vn 0.000000 0.000000 -1.000000
vn -0.000000 0.000000 1.000000
vn -0.000000 0.000000 1.000000
vn -0.309017 0.000000 -0.951057
vn -0.309017 0.000000 -0.951057
vn 0.309017 0.000000 0.951057
vn 0.309017 0.000000 0.951057
vn -0.587785 0.000000 -0.809017
vn -0.587785 0.000000 -0.809017
vn 0.587785 0.000000 0.809017
vn 0.587785 0.000000 0.809017
vn -0.809017 0.000000 -0.587785
vn -0.809017 0.000000 -0.587785
vn 0.809017 0.000000 0.587785
vn 0.809017 0.000000 0.587785
vn -0.951056 0.000000 -0.309017
vn -0.951056 0.000000 -0.309017
vn 0.951057 0.000000 0.309017
vn 0.951057 0.000000 0.309017
vn -1.000000 0.000000 0.000000
vn -1.000000 0.000000 0.000000
vn 1.000000 0.000000 0.000000
vn 1.000000 0.000000 0.000000
vn -0.951057 0.000000 0.309017
vn -0.951057 0.000000 0.309017
vn 0.951056 0.000000 -0.309017
vn 0.951056 0.000000 -0.309017
vn -0.809017 0.000000 0.587785
vn -0.809017 0.000000 0.587785
vn 0.809017 0.000000 -0.587785
vn 0.809017 0.000000 -0.587785
vn -0.823805 0.000000 0.566874
vn -0.823805 0.000000 0.566874
vn 0.637822 0.000000 -0.770184
vn 0.637822 0.000000 -0.770184
vn -0.913083 0.000000 0.407773
vn -0.913083 0.000000 0.407773
vn 0.562938 0.000000 -0.826499
vn 0.562938 0.000000 -0.826499
vn 0.823791 0.000000 0.566893
vn 0.823791 0.000000 0.566893
vn 0.913064 0.000000 0.407816
vn 0.913064 0.000000 0.407816
vn -0.524174 0.000000 -0.851611
vn -0.524174 0.000000 -0.851611
vn -0.619866 0.000000 -0.784708
vn -0.619866 0.000000 -0.784708
vn 0.809017 0.000000 0.587786
vn 0.809017 0.000000 0.587786
vn -0.809017 0.000000 -0.587785
vn -0.809017 0.000000 -0.587785
vn 0.951057 0.000000 0.309016
vn 0.951057 0.000000 0.309016
vn -0.951057 0.000000 -0.309016
vn -0.951057 0.000000 -0.309016
vn 1.000000 0.000000 0.000000
vn 1.000000 0.000000 0.000000
vn 1.000000 0.000000 0.000000
vn 1.000000 0.000000 0.000000
vn -1.000000 0.000000 0.000000
vn -1.000000 0.000000 0.000000
vn -1.000000 0.000000 0.000000
vn -1.000000 0.000000 0.000000
vn -0.021851 0.000000 -0.999761
vn -0.021851 0.000000 -0.999761
vn -0.021851 0.000000 -0.999761
vn -0.021851 0.000000 -0.999761
vn 0.000155 0.000000 1.000000
vn 0.000155 0.000000 1.000000
vn 0.000155 0.000000 1.000000
vn 0.000155 0.000000 1.000000
vn 0.000000 -1.000000 0.000000
vn 0.000000 -1.000000 0.000000
s 1
g arrow
usemtl lambert2SG
f 44/2/1 46/1/2 45/3/3
s off
f 44/97/4 45/99/5 47/98/6
f 45/99/7 46/101/8 48/100/9
s 2
f 50/102/10 52/105/11 51/104/12 49/103/13
f 53/106/14 54/107/15 52/105/11 50/102/10
f 55/108/16 56/109/17 54/107/15 53/106/14
f 57/110/18 58/111/19 56/109/17 55/108/16
f 59/112/20 60/113/21 58/111/19 57/110/18
f 61/114/22 62/115/23 60/113/21 59/112/20
f 63/116/24 64/117/25 62/115/23 61/114/22
f 65/118/26 66/119/27 64/117/25 63/116/24
f 67/120/28 68/121/29 66/119/27 65/118/26
f 69/122/30 70/123/31 68/121/29 67/120/28
f 71/124/32 72/125/33 70/123/31 69/122/30
f 73/126/34 74/127/35 72/125/33 71/124/32
f 75/128/36 76/129/37 74/127/35 73/126/34
f 77/130/38 78/131/39 76/129/37 75/128/36
f 80/132/40 82/135/41 81/134/42 79/133/43
f 83/136/44 84/137/45 82/135/41 80/132/40
f 85/138/46 86/139/47 84/137/45 83/136/44
f 49/103/13 51/104/12 86/139/47 85/138/46
s 1
f 79/140/48 77/141/49 46/101/2 44/97/1
s off
f 77/145/50 79/144/51 81/143/52 78/142/53
s 4
f 1/50/54 3/51/55 2/52/56
s off
f 1/50/57 4/53/58 3/51/59
f 3/51/60 5/54/61 2/52/62
s 5
f 26/55/63 25/56/64 6/57/65 7/58/66
f 27/59/67 26/55/63 7/58/66 8/60/68
f 28/61/69 27/59/67 8/60/68 9/62/70
f 29/63/71 28/61/69 9/62/70 10/64/72
f 30/65/73 29/63/71 10/64/72 11/66/74
f 31/67/75 30/65/73 11/66/74 12/68/76
f 32/69/77 31/67/75 12/68/76 13/70/78
f 33/71/79 32/69/77 13/70/78 14/72/80
f 34/73/81 33/71/79 14/72/80 15/74/82
f 35/75/83 34/73/81 15/74/82 16/76/84
f 36/77/85 35/75/83 16/76/84 17/78/86
f 37/79/87 36/77/85 17/78/86 18/80/88
f 38/81/89 37/79/87 18/80/88 19/82/90
f 39/83/91 38/81/89 19/82/90 20/84/92
f 41/85/93 40/86/94 21/87/95 22/88/96
f 42/89/97 41/85/93 22/88/96 23/90/98
f 43/91/99 42/89/97 23/90/98 24/92/100
f 25/56/64 43/91/99 24/92/100 6/57/65
s off
f 39/93/101 20/94/102 21/95/103 40/96/104
f 1/2/105 44/97/106 47/98/107 4/5/108
f 4/5/109 47/98/110 45/99/111 3/3/112
f 3/3/113 45/99/114 48/100/115 5/4/116
f 5/4/117 48/100/118 46/101/119 2/1/120
s 7
f 26/6/121 50/102/122 49/103/123 25/7/124
s 8
f 6/8/125 51/104/126 52/105/127 7/9/128
s 7
f 27/12/129 53/106/130 50/102/122 26/6/121
s 8
f 7/9/128 52/105/127 54/107/131 8/13/132
s 7
f 28/16/133 55/108/134 53/106/130 27/12/129
s 8
f 8/13/132 54/107/131 56/109/135 9/17/136
s 7
f 29/20/137 57/110/138 55/108/134 28/16/133
s 8
f 9/17/136 56/109/135 58/111/139 10/21/140
s 7
f 30/24/141 59/112/142 57/110/138 29/20/137
s 8
f 10/21/140 58/111/139 60/113/143 11/25/144
s 7
f 31/26/145 61/114/146 59/112/142 30/24/141
s 8
f 11/25/144 60/113/143 62/115/147 12/27/148
s 7
f 32/28/149 63/116/150 61/114/146 31/26/145
s 8
f 12/27/148 62/115/147 64/117/151 13/29/152
s 7
f 33/30/153 65/118/154 63/116/150 32/28/149
s 8
f 13/29/152 64/117/151 66/119/155 14/31/156
s 7
f 34/32/157 67/120/158 65/118/154 33/30/153
s 8
f 14/31/156 66/119/155 68/121/159 15/33/160
s 7
f 35/34/161 69/122/162 67/120/158 34/32/157
s 8
f 15/33/160 68/121/159 70/123/163 16/35/164
s 7
f 36/36/165 71/124/166 69/122/162 35/34/161
s 8
f 16/35/164 70/123/163 72/125/167 17/37/168
s 7
f 37/38/169 73/126/170 71/124/166 36/36/165
s 8
f 17/37/168 72/125/167 74/127/171 18/39/172
s 7
f 38/40/173 75/128/174 73/126/170 37/38/169
s 8
f 18/39/172 74/127/171 76/129/175 19/41/176
s 7
f 39/42/177 77/130/178 75/128/174 38/40/173
s 8
f 19/41/176 76/129/175 78/131/179 20/43/180
s 7
f 41/18/181 80/132/182 79/133/183 40/22/184
s 8
f 21/23/185 81/134/186 82/135/187 22/19/188
s 7
f 42/14/189 83/136/190 80/132/182 41/18/181
s 8
f 22/19/188 82/135/187 84/137/191 23/15/192
s 7
f 43/10/193 85/138/194 83/136/190 42/14/189
s 8
f 23/15/192 84/137/191 86/139/195 24/11/196
s 7
f 25/7/124 49/103/123 85/138/194 43/10/193
s 8
f 24/11/196 86/139/195 51/104/126 6/8/125
s off
f 40/45/197 79/140/198 44/97/199 1/2/200
f 2/1/201 46/101/202 77/141/203 39/44/204
f 20/47/205 78/142/206 81/143/207 21/48/208
f 40/49/209 79/144/210 77/145/211 39/46/212
s 4
f 1/146/54 2/149/56 39/148/213 40/147/214
