# This file uses centimeters as units for non-parametric coordinates.

mtllib visGeo_RightFootMesh.mtl
g default
v -0.760823 -4.196628 1.169893
v -0.039176 -4.196628 1.169893
v -0.760823 -4.046673 1.169893
v -0.039176 -4.046673 1.169893
v -0.760823 -4.046673 -0.244760
v -0.039176 -4.046673 -0.244760
v -0.760823 -4.196628 -0.244760
v -0.039176 -4.196628 -0.244760
v -0.560130 -4.196628 1.473083
v -0.239870 -4.196628 1.473083
v -0.239870 -4.046673 1.473083
v -0.560130 -4.046673 1.473083
v -0.603226 -4.046673 -0.478554
v -0.196774 -4.046673 -0.478554
v -0.196774 -4.196628 -0.478554
v -0.603226 -4.196628 -0.478554
vt 0.375000 0.000000
vt 0.625000 0.000000
vt 0.375000 0.250000
vt 0.625000 0.250000
vt 0.375000 0.500000
vt 0.625000 0.500000
vt 0.375000 0.750000
vt 0.625000 0.750000
vt 0.375000 1.000000
vt 0.625000 1.000000
vt 0.875000 0.000000
vt 0.875000 0.250000
vt 0.125000 0.000000
vt 0.125000 0.250000
vt 0.375000 0.000000
vt 0.625000 0.000000
vt 0.625000 0.250000
vt 0.375000 0.250000
vt 0.375000 0.500000
vt 0.625000 0.500000
vt 0.625000 0.750000
vt 0.375000 0.750000
vn 0.000000 0.000000 1.000000
vn 0.000000 0.000000 1.000000
vn 0.000000 0.000000 1.000000
vn 0.000000 0.000000 1.000000
vn 0.000000 1.000000 0.000000
vn 0.000000 1.000000 0.000000
vn 0.000000 1.000000 -0.000000
vn 0.000000 1.000000 -0.000000
vn 0.000000 0.000000 -1.000000
vn 0.000000 0.000000 -1.000000
vn 0.000000 0.000000 -1.000000
vn 0.000000 0.000000 -1.000000
vn 0.000000 -1.000000 -0.000000
vn 0.000000 -1.000000 -0.000000
vn 0.000000 -1.000000 -0.000000
vn 0.000000 -1.000000 -0.000000
vn 1.000000 0.000000 0.000000
vn 1.000000 0.000000 0.000000
vn 1.000000 0.000000 0.000000
vn 1.000000 0.000000 0.000000
vn -1.000000 0.000000 0.000000
vn -1.000000 0.000000 0.000000
vn -1.000000 0.000000 0.000000
vn -1.000000 0.000000 0.000000
vn 0.000000 -1.000000 -0.000000
vn 0.000000 -1.000000 -0.000000
vn 0.833865 0.000000 0.551969
vn 0.833865 0.000000 0.551969
vn 0.833865 0.000000 0.551969
vn 0.833865 0.000000 0.551969
vn 0.000000 1.000000 0.000000
vn 0.000000 1.000000 0.000000
vn -0.833865 0.000000 0.551969
vn -0.833865 0.000000 0.551969
vn -0.833865 0.000000 0.551969
vn -0.833865 0.000000 0.551969
vn 0.000000 1.000000 -0.000000
vn 0.000000 1.000000 -0.000000
vn 0.829199 0.000000 -0.558954
vn 0.829199 0.000000 -0.558954
vn 0.829199 0.000000 -0.558954
vn 0.829199 0.000000 -0.558954
vn 0.000000 -1.000000 -0.000000
vn 0.000000 -1.000000 -0.000000
vn -0.829199 0.000000 -0.558953
vn -0.829199 0.000000 -0.558953
vn -0.829199 0.000000 -0.558953
vn -0.829199 0.000000 -0.558953
s off
g visGeo_RightFoot
usemtl lambert3SG
f 9/15/1 10/16/2 11/17/3 12/18/4
s 1
f 3/3/5 4/4/6 6/6/7 5/5/8
s off
f 13/19/9 14/20/10 15/21/11 16/22/12
s 2
f 7/7/13 8/8/14 2/10/15 1/9/16
s off
f 2/2/17 8/11/18 6/12/19 4/4/20
f 7/13/21 1/1/22 3/3/23 5/14/24
s 2
f 1/1/16 2/2/15 10/16/25 9/15/26
s off
f 2/2/27 4/4/28 11/17/29 10/16/30
s 1
f 4/4/6 3/3/5 12/18/31 11/17/32
s off
f 3/3/33 1/1/34 9/15/35 12/18/36
s 1
f 5/5/8 6/6/7 14/20/37 13/19/38
s off
f 6/6/39 8/8/40 15/21/41 14/20/42
s 2
f 8/8/14 7/7/13 16/22/43 15/21/44
s off
f 7/7/45 5/5/46 13/19/47 16/22/48
